<svg xmlns="http://www.w3.org/2000/svg" width="220" height="160" fill="none">
  <path fill="#3640D5" d="M109.492 73.788a51.557 51.557 0 0 0-3.26 4.006c-9.433 12.734-18.76 25.325-27.983 37.772a1.21 1.21 0 0 0 .33 1.742c.187.119.404.185.627.189 3.34.057 6.634.108 9.885.153 3.129.038 4.624 1.676 4.483 4.914-.3 7.202-.37 14.468-.21 21.797a2.317 2.317 0 0 1-.713 1.727 2.323 2.323 0 0 1-1.754.644c-1.94-.115-3.967-.335-5.955-.316a2492.12 2492.12 0 0 1-43.662.058c-4.35-.038-8.871-.478-12.925-1.989C-.392 133.778-3.289 95.556 23.5 80.184c1.195-.688 1.845-2.19 2.122-3.662C27.82 65.07 32.447 56.17 41.223 49.075 53.345 39.266 70.19 36.81 84.54 43.358c1.753.797 3.518 1.574 5.296 2.333.33.141.703.148 1.038.017a1.39 1.39 0 0 0 .76-.715c7.256-15.889 20.477-26.195 37.523-30.535 13.337-3.403 28.269-.574 40.392 5.64 2.632 1.352 6.475 4.443 11.529 9.274 6.406 6.128 11.195 13.26 13.537 21.845 2.801 10.248 3.939 18.661 2.362 29.234a.806.806 0 0 0 .688.918c.733.102 1.469.418 2.208.947 8.949 6.357 14.312 15.573 15.048 26.606 1.1 16.5-9.398 31.271-24.971 36.08-3.104.962-7.779 1.465-14.025 1.51-15.653.108-31.268.061-46.844-.143a2.363 2.363 0 0 1-2.333-2.352l-.191-23.403c-.013-2.059 1.01-3.082 3.069-3.069l11.338.086a.83.83 0 0 0 .66-.327.82.82 0 0 0 .133-.725c-.286-.994-.812-2.011-1.577-3.049a3697.755 3697.755 0 0 0-17.973-24.226c-2.945-3.939-7.428-10.516-11.74-15.497-.325-.376-.65-.382-.975-.019Z"/>
</svg>
