<svg xmlns="http://www.w3.org/2000/svg" width="220" height="160" fill="none">
  <path fill="#3841D2" d="M123.212 11.266c14.832 5.126 26.206 19.15 27.349 35.256.492 6.99-.718 14.236-3.63 21.738-1.058 2.73-2.008 4.648-2.851 5.753-6.885 9.029-16.329 18.755-21.667 26.136a112.717 112.717 0 0 0-9.777 16.258c-.539 1.106-1.173 1.904-1.901 2.396a1.752 1.752 0 0 1-1.406.256 1.76 1.76 0 0 1-1.132-.872c-3.114-5.794-6.208-11.921-9.858-17.037-5.358-7.532-11.86-13.66-17.44-20.899-2.306-2.982-4.995-6.005-6.593-9.25-2.568-5.204-4.125-10.654-4.67-16.35-2.781-29.068 24.81-53.323 53.576-43.385Zm8.139 38.653A21.353 21.353 0 0 0 94.898 34.82a21.354 21.354 0 1 0 36.453 15.1Z"/>
  <path fill="#3841D2" d="M181.762 138.923a.362.362 0 0 0 .316-.163.378.378 0 0 0 .028-.362 607.492 607.492 0 0 0-9.383-19.878c-2.599-5.258-5.642-13.063-8.928-18.108-.6-.924-1.759-1.385-3.478-1.385-8.088-.02-16.376 0-24.862.06-.782.007-1.048-.357-.799-1.092.779-2.305 6.39-7.42 8.261-9.504.788-.883 1.789-1.341 3.002-1.375a232.08 232.08 0 0 1 23.619.556c3.771.273 3.69 5.035 5.055 7.776a2872.561 2872.561 0 0 1 25.236 51.766 1.789 1.789 0 0 1-.059 1.638 1.765 1.765 0 0 1-1.366.89c-7.573.718-14.195.424-22.415.455-36.19.121-82.011.118-137.465-.01-6.056-.021-11.748.374-17.906-.819a.774.774 0 0 1-.523-.384.767.767 0 0 1-.043-.648c3.144-7.977 7.39-15.54 11.192-23.901 2.912-6.404 6.855-14.428 11.83-24.074 1.88-3.64 3.336-7.815 5.136-11.678.526-1.125 1.409-1.634 2.65-1.526 7.633.667 23.415-2.427 27.318 2.305a69.586 69.586 0 0 0 7.047 7.32 1.416 1.416 0 0 1 .407 1.428 1.393 1.393 0 0 1-1.094.989c-.283.053-.637.08-1.062.08a1313.03 1313.03 0 0 1-25.58-.424 1.824 1.824 0 0 0-1.035.283c-.31.196-.555.482-.704.819-4.772 10.818-10.303 21.212-15.277 31.929a51.25 51.25 0 0 1-2.609 4.874.847.847 0 0 0 .334 1.188c.137.072.29.105.445.096 2.214-.152 4.722.151 6.653.151 43.111.041 86.22.061 129.325.061 1.992 0 4.499.617 6.734.667Z"/>
</svg>
