<svg xmlns="http://www.w3.org/2000/svg" width="220" height="160" fill="none">
  <path fill="#3740D3" d="M72.702 37.955c.302-4.936-.172-9.751-.282-14.667-.071-3.023-2.438-4.705-2.912-6.559-.55-2.169-.339-4.227.635-6.175.181-.37.48-.554.896-.554l79.957.01c1.135 0 1.79.558 1.965 1.672.473 3.043.352 5.45-2.237 7.626a1.984 1.984 0 0 0-.705 1.521l-.081 16.582c0 .752.373 1.165 1.119 1.24 2.135.22 4.462.332 6.981.332 9.154 0 18.307.033 27.461.1 3.969.02 3.828 3.486 3.818 6.83-.06 30.041.007 60.088.202 90.142.02 3.17 1.011 4.93 2.972 5.279 1.705.309 2.542 1.33 2.508 3.062l-.081 3.778c-.026 1.585-.832 2.377-2.417 2.377l-165.243.071c-1.545 0-2.297-.769-2.256-2.307l.11-4.584a2.664 2.664 0 0 1 .692-1.721 2.639 2.639 0 0 1 1.646-.847l2.568-.323c.397-.047.595-.272.595-.675l.05-97.304a3.637 3.637 0 0 1 3.607-3.636 6026.76 6026.76 0 0 1 33.465-.212c1.209-.007 2.666-.148 4.372-.423.37-.054.568-.266.595-.635Zm31.307-1.933a1.188 1.188 0 0 0-1.168-1.21l-16.015-.28a1.19 1.19 0 0 0-1.209 1.169l-.28 16.075a1.19 1.19 0 0 0 1.167 1.21l16.015.279a1.193 1.193 0 0 0 1.111-.715 1.2 1.2 0 0 0 .099-.453l.28-16.075Zm32.949-.078a1.253 1.253 0 0 0-1.241-1.258l-15.795-.11a1.249 1.249 0 0 0-1.258 1.24l-.11 15.776a1.248 1.248 0 0 0 1.24 1.257l15.796.11a1.248 1.248 0 0 0 1.257-1.24l.111-15.775Zm-72.65 25.81a1.784 1.784 0 0 0-1.787-1.78L47.954 60a1.784 1.784 0 0 0-1.78 1.786l.026 14.546a1.783 1.783 0 0 0 1.786 1.78l14.567-.025a1.782 1.782 0 0 0 1.78-1.786l-.026-14.547Zm72.593-.341a1.23 1.23 0 0 0-1.242-1.216l-15.835.165a1.233 1.233 0 0 0-1.128.77c-.06.15-.09.31-.089.472l.165 15.674a1.227 1.227 0 0 0 1.241 1.216l15.836-.165a1.228 1.228 0 0 0 1.216-1.242l-.164-15.674Zm36.963-.01a1.27 1.27 0 0 0-1.256-1.283l-15.714-.165a1.27 1.27 0 0 0-1.283 1.256l-.162 15.493a1.27 1.27 0 0 0 1.256 1.283l15.714.164a1.27 1.27 0 0 0 1.283-1.256l.162-15.492Zm-70.125.7a1.612 1.612 0 0 0-1.581-1.592l-14.91-.293a1.612 1.612 0 0 0-1.642 1.612l-.03 14.92a1.612 1.612 0 0 0 1.612 1.612l15.121.01a1.609 1.609 0 0 0 1.495-1.01c.08-.197.119-.409.117-.622l-.182-14.638Zm.173 24.513a1.775 1.775 0 0 0-1.761-1.785l-14.808-.104a1.773 1.773 0 0 0-1.786 1.76l-.103 14.789a1.771 1.771 0 0 0 1.76 1.785l14.809.104a1.774 1.774 0 0 0 1.785-1.761l.104-14.788Zm33.244.354a2.116 2.116 0 0 0-2.082-2.148l-14.303-.225a2.116 2.116 0 0 0-2.149 2.082l-.226 14.424a2.114 2.114 0 0 0 2.082 2.149l14.303.224a2.107 2.107 0 0 0 1.505-.596 2.116 2.116 0 0 0 .643-1.486l.227-14.424Zm-90.939 15.025a1.603 1.603 0 0 0 1.602 1.602l15.07.03a1.603 1.603 0 0 0 1.602-1.642l-.332-15.02a1.602 1.602 0 0 0-1.602-1.572l-14.738.02a1.602 1.602 0 0 0-1.602 1.602v14.98Zm127.496-14.788a1.593 1.593 0 0 0-1.552-1.562l-15.01-.352a1.59 1.59 0 0 0-1.632 1.591l.051 15.192a1.588 1.588 0 0 0 1.591 1.591l15.242-.04a1.587 1.587 0 0 0 1.137-.477 1.598 1.598 0 0 0 .455-1.145l-.282-14.798Zm.168 24.584a1.564 1.564 0 0 0-1.537-1.586l-15.21-.239a1.56 1.56 0 0 0-1.585 1.537l-.238 15.129a1.56 1.56 0 0 0 1.537 1.586l15.209.239a1.56 1.56 0 0 0 1.586-1.537l.238-15.129Zm-109.378.049a1.729 1.729 0 0 0-.51-1.215 1.718 1.718 0 0 0-1.222-.499l-14.808.078a1.73 1.73 0 0 0-1.215.511 1.717 1.717 0 0 0-.499 1.221l.077 14.727a1.723 1.723 0 0 0 1.732 1.714l14.809-.077a1.733 1.733 0 0 0 1.215-.511 1.731 1.731 0 0 0 .498-1.221l-.077-14.728Zm60.018 3.616a1.39 1.39 0 0 0-1.398-1.383l-23.431.123a1.39 1.39 0 0 0-1.383 1.397l.123 23.472a1.39 1.39 0 0 0 1.397 1.383l23.432-.123a1.393 1.393 0 0 0 1.383-1.397l-.123-23.472Z"/>
</svg>
